<svg width="90" height="120" viewBox="0 0 90 120" fill="none" xmlns="http://www.w3.org/2000/svg">
<path d="M16.368 40.8526L15.0488 43.2763L16.368 45.186L20.6189 48.1239L26.0423 53.2652L29.6335 57.2314L33.8843 60.8303L35.6433 58.9941L36.7426 56.35L35.6433 54.1466L33.3713 50.9149L30.8794 48.1239L28.1677 45.186L25.3094 43.2763L22.0114 40.8526L19.6661 39.3102H18.5667L16.368 40.8526Z" fill="white"/>
<path d="M52.8664 53.7793L54.3322 53.0448L54.9185 54.8076H56.9706L59.6091 53.7793L62.0277 53.0448L64.3729 51.1352L66.0586 49.0052L68.4772 46.3611L70.0895 43.5701L70.8224 41.8074L70.0895 40.1181L69.3566 39.1633L70.0895 38.2085H71.2622L72.728 38.5757L74.7801 40.1181L76.3192 42.395L75.9527 46.3611L74.0472 49.0052L72.728 52.4573L67.0847 57.0845L61.5879 60.9772H56.9706L54.3322 58.8472L52.8664 57.5986V55.5421V53.7793Z" fill="white"/>
<path d="M23.4529 37.5564L21.9863 40.1204V41.2192L23.7462 42.2448L26.8993 44.4425L30.419 47.739L33.3522 50.9622L35.772 53.746L36.3586 52.7204L38.9251 50.2297L40.7583 48.4715L43.4714 46.4204L47.2845 44.4425L51.1709 42.6843L55.1306 41.2192L58.797 40.4134L63.3433 38.9483L66.7897 37.1901L68.9896 33.5273V31.4762L67.8897 28.6192L66.7897 27.0808L66.7164 24.7366V22.3924L65.9831 20.9273L64.8832 19.0227L64.3699 16.0924L63.3433 13.7482V11.9168L62.0967 8.54707L59.0903 6.64242L55.2039 6.12962L55.7172 3.78544L55.2039 1.95404L54.4706 1.07497H53.0041L51.1709 1.95404L49.0444 2.6866L48.6044 4.37148L49.0444 5.1773L49.7776 5.76335L50.8776 6.64242L52.1975 7.81451L48.6044 9.93893L46.1112 11.1843V12.6494L47.9444 14.7006L49.7776 16.532L50.3643 18.5099L48.6044 19.9017L45.7446 20.561H44.4247L45.0113 21.6599L46.1112 22.3924L47.2845 23.6378L47.9444 25.689L47.2845 27.3738H45.378L43.4714 27.9599H42.2249L42.8848 29.5715L42.2249 31.4762L40.025 31.989L38.6318 32.6483V33.5273L37.5319 34.7727L34.2321 35.5052L31.519 35.2122L27.7792 36.018L23.4529 37.5564Z" fill="#3787FE"/>
<path d="M22.3779 35.0969L23.403 37.0033L26.1852 36.5634L29.1138 35.7569L32.0425 35.5369H35.0443L36.8747 35.0969L39.1444 34.3637V32.4573L39.6569 31.6508H41.9266L43.0249 30.4776V29.4511L41.9266 27.6913H43.5374H46.3196L47.7839 26.7381V24.2451L45.2213 21.8254L44.8553 20.4323H47.7839L50.4197 18.7459L49.9804 16.3995L47.7839 14.3465L46.3196 11.4135L51.5911 8.114L51.9572 7.16079L44.1231 1.07497L42.2927 1.95485L41.1945 4.30119V6.8675L41.048 8.114L39.1444 7.16079L36.0693 6.35424L33.9461 7.16079L32.0425 8.114L30.1388 10.387L29.6263 12.5134L28.8942 13.8332L27.8691 14.3465L26.1852 16.3995L25.0137 18.7459V21.8254L24.5012 22.9253L23.403 27.1047V29.4511L22.9637 31.2841L22.3779 35.0969Z" fill="#FFDD63"/>
<path d="M48.5893 43.8957L43.5374 46.682L45.2213 47.9285L47.7839 48.8817L51.884 50.7148L54.2269 52.5479L55.1055 54.8209H56.9359L60.1574 53.8677L63.2325 51.9613L66.7469 48.5151L69.4559 44.9956L70.847 41.4027L66.7469 37.2233L64.5504 38.6165L62.4271 39.643L58.0342 40.5229L53.2019 42.2093L48.5893 43.8957Z" fill="#FFDD63"/>
<path fill-rule="evenodd" clip-rule="evenodd" d="M61.3638 6.82648C62.9712 8.17576 63.7892 9.64251 63.9448 11.1595C63.9969 11.6667 63.9735 12.1658 63.8886 12.6531C63.9395 12.7047 63.9836 12.7648 64.0186 12.8326C65.2208 15.1642 65.5642 17.2986 65.354 19.1901C65.5523 19.212 65.7409 19.3143 65.8673 19.4886C67.7231 22.0477 68.0182 24.5112 67.4779 26.6634C67.4965 26.6819 67.5143 26.7017 67.5312 26.7226C68.9366 28.464 70.2767 31.365 69.3874 34.2786C68.4831 37.2411 65.3934 39.8551 58.7507 41.2557C45.8464 43.9766 38.5912 50.9665 36.6251 53.9978C36.4047 54.3377 35.9505 54.4345 35.6107 54.2139C35.2709 53.9934 35.1741 53.539 35.3946 53.199C37.5847 49.8223 45.1838 42.6166 58.4482 39.8198C64.8899 38.4615 67.3131 36.0494 67.9845 33.85C68.5786 31.9035 67.8928 29.8458 66.8807 28.3158C65.7334 30.7357 63.6405 32.5701 62.0617 33.5332C61.7159 33.7442 61.2645 33.6348 61.0537 33.2888C60.8428 32.9428 60.9522 32.4913 61.298 32.2803C62.7191 31.4135 64.582 29.7604 65.5688 27.6586C66.4723 25.7341 66.6602 23.409 65.0178 20.845C64.8225 21.5004 64.5618 22.1194 64.252 22.6994C62.8929 25.2442 60.618 26.9942 58.9275 27.8398C58.5652 28.0211 58.1246 27.8741 57.9435 27.5117C57.7623 27.1492 57.9092 26.7085 58.2715 26.5273C59.7591 25.7831 61.7748 24.2239 62.9582 22.0079C63.9943 20.0679 64.4159 17.5877 63.2187 14.6035C63.0849 14.8664 62.9366 15.1235 62.7767 15.3742C61.1695 17.8945 58.2498 19.9892 56.0864 21.1527C55.7296 21.3446 55.2849 21.2108 55.0931 20.8539C54.9013 20.4969 55.0351 20.052 55.3918 19.8602C57.4578 18.7491 60.1269 16.8009 61.5401 14.5849C62.2401 13.4872 62.5957 12.3817 62.4857 11.3094C62.3772 10.2523 61.8038 9.10567 60.403 7.93563C60.3886 7.92355 60.3746 7.91091 60.3611 7.89776C59.6188 7.17371 57.0405 5.88327 53.3944 8.00653C53.3909 8.00858 53.3873 8.0106 53.3838 8.01259L46.0495 12.1216C45.6961 12.3196 45.2491 12.1935 45.0512 11.8399C44.8533 11.4863 44.9794 11.0392 45.3328 10.8412L52.6618 6.73513C56.8511 4.2983 60.1339 5.64801 61.3638 6.82648Z" fill="black"/>
<path fill-rule="evenodd" clip-rule="evenodd" d="M49.0553 4.06877C50.2298 5.1166 51.3936 6.18143 52.2367 6.96413L51.2398 8.04097C50.2311 7.1046 48.7601 5.76151 47.3676 4.53319C46.4484 3.72239 45.5698 2.96715 44.8829 2.4128C44.5382 2.1346 44.2515 1.91484 44.0369 1.76564C43.9647 1.71549 43.9059 1.67696 43.8596 1.64849C43.8518 1.65113 43.8433 1.65408 43.8343 1.65739C43.7343 1.69398 43.5979 1.7598 43.4401 1.86207C43.125 2.0663 42.7613 2.392 42.4584 2.84495C41.8723 3.72167 41.4677 5.14486 42.2354 7.25076L41.761 7.4242C43.1155 8.21895 44.5741 9.29726 46.1412 10.6996L46.1962 10.7488L46.2403 10.808C46.8121 11.5754 47.7062 12.7557 48.5289 13.8009C48.9406 14.324 49.3311 14.8089 49.6529 15.1899C49.9939 15.5938 50.2097 15.8224 50.2899 15.8866C50.6211 16.1519 50.9208 16.64 51.0662 17.1727C51.2188 17.732 51.2299 18.4467 50.8305 19.1266C50.4322 19.8046 49.6959 20.3286 48.5961 20.6539C47.8165 20.8844 46.8258 21.0247 45.5766 21.0458C45.7475 21.2017 45.9196 21.3601 46.093 21.521C46.7541 21.9164 47.6478 22.6046 48.2503 23.4622C48.883 24.3627 49.2862 25.6149 48.4623 26.8525C48.0511 27.4702 47.4267 27.8451 46.7698 28.0676C46.1137 28.2899 45.3768 28.3777 44.6578 28.3907C44.2134 28.3988 43.763 28.3784 43.3246 28.3388C43.5532 28.7029 43.7192 29.1192 43.7418 29.5752C43.7806 30.3604 43.3884 31.0667 42.6355 31.6369C41.9726 32.1388 40.994 32.569 39.6471 32.9262C39.684 33.1653 39.6828 33.4155 39.6276 33.6721C39.4601 34.4508 38.8519 35.0435 37.9431 35.4647C37.0362 35.8851 35.7252 36.1892 33.9145 36.354L33.7999 36.3644L33.6877 36.3393C32.4537 36.0623 28.6353 35.9424 23.9679 37.985L22.2553 40.1002C24.1161 41.2874 26.4034 42.9318 28.6727 44.9092C31.8749 47.6995 35.0893 51.1943 36.9978 55.0468L37.0167 55.085L37.031 55.125C37.4883 56.4006 37.345 59.1809 34.2957 61.5346L33.7519 61.9544L33.2979 61.4385C30.8641 58.6723 26.9761 54.4977 23.2276 50.9686C21.3522 49.2029 19.5248 47.6112 17.9398 46.44C17.1471 45.8542 16.4275 45.3829 15.802 45.0487C15.1648 44.7083 14.6781 44.5391 14.3397 44.5026L13.1924 44.3788L13.7916 43.3913C14.368 42.4412 15.3462 41.0685 16.4182 40.0484C16.9511 39.5413 17.5483 39.0812 18.1666 38.8226C18.792 38.5611 19.5266 38.4752 20.2075 38.8764C20.4528 39.0116 20.7159 39.1615 20.9946 39.3257L22.5757 37.373L22.0908 36.7418L22.0575 36.5731C21.8003 35.2724 21.7037 33.7519 21.9465 32.3131C22.0976 31.4176 22.3849 30.5297 22.8652 29.7472L22.7811 29.7565C22.6035 28.1495 22.6304 26.323 23.0427 24.6851C23.2837 23.7278 23.6655 22.8024 24.2398 22.0259C24.189 20.3323 24.3901 18.4522 25.0098 16.8165C25.6448 15.1402 26.7506 13.6496 28.5402 12.9705C28.5643 12.9614 28.5885 12.9524 28.6128 12.9435C29.1611 10.4912 30.5823 7.48748 33.3283 6.21911C35.2488 5.33207 37.6428 5.36386 40.561 6.78007C40.0637 4.73528 40.4927 3.1456 41.2399 2.02803C41.6611 1.39802 42.1726 0.934449 42.6434 0.629321C42.8785 0.476912 43.1128 0.358025 43.331 0.278177C43.5294 0.205569 43.7854 0.138659 44.0392 0.164083C44.2452 0.184712 44.4256 0.282045 44.5075 0.327277C44.6209 0.389925 44.7453 0.470601 44.873 0.559343C45.1302 0.738108 45.4485 0.983248 45.8031 1.2695C46.4058 1.7559 47.1415 2.38372 47.9139 3.05966C48.9204 2.39985 50.2634 1.57958 51.4862 0.960432C52.1939 0.602094 52.8963 0.293028 53.4847 0.129722C53.7755 0.0490177 54.0839 -0.00932858 54.3729 0.00123671C54.6544 0.0115239 55.0494 0.0949536 55.3209 0.441038C55.3792 0.515327 55.4436 0.592166 55.5113 0.67301C55.8255 1.04791 56.2118 1.5089 56.3967 2.2008C56.6178 3.02819 56.5659 4.14545 56.196 5.96068L54.7592 5.66705C55.1224 3.88464 55.1073 3.05625 54.9801 2.5804C54.8854 2.22612 54.7394 2.04886 54.4611 1.71096C54.4017 1.63893 54.3364 1.55959 54.2642 1.46969C54.1828 1.47468 54.0559 1.49496 53.8764 1.5448C53.429 1.66897 52.829 1.92598 52.1479 2.27086C51.1172 2.79275 49.9804 3.47456 49.0553 4.06877ZM54.3456 1.47087C54.3455 1.47092 54.3442 1.47075 54.3417 1.47024C54.3444 1.47057 54.3456 1.47083 54.3456 1.47087ZM30.2097 12.6086C31.6887 12.4993 33.4333 12.8663 35.4669 13.7977C37.8357 14.8827 40.6534 16.7578 44.0007 19.6462L44.0062 19.5447C45.9775 19.6524 47.3059 19.5043 48.1807 19.2456C49.0514 18.9881 49.4149 18.6402 49.5665 18.3821C49.717 18.1259 49.7281 17.8401 49.6516 17.5597C49.6133 17.4194 49.5555 17.2924 49.4946 17.192C49.4644 17.1423 49.4358 17.1028 49.4118 17.074C49.3867 17.0438 49.3728 17.0323 49.3739 17.0332C49.1608 16.8625 48.8512 16.5147 48.5331 16.1381C48.1957 15.7385 47.7935 15.2387 47.3773 14.71C46.5653 13.6784 45.6875 12.5207 45.1094 11.7456C39.6932 6.91772 36.1425 6.5364 33.9425 7.55252C32.0069 8.44658 30.795 10.5514 30.2097 12.6086ZM25.7231 20.6682C25.7348 20.6613 25.7465 20.6544 25.7582 20.6475C27.2568 19.7728 29.2568 19.6842 31.7983 20.5794C34.3072 21.4631 37.4274 23.3309 41.3015 26.51C42.1621 26.7293 43.4392 26.9442 44.6312 26.9226C45.2625 26.9111 45.8362 26.8337 46.2998 26.6766C46.7625 26.5199 47.0669 26.3012 47.2422 26.0379C47.5914 25.5133 47.5059 24.9546 47.051 24.3071C46.5882 23.6485 45.8399 23.0709 45.2848 22.7485L45.2139 22.7073L45.1539 22.6515C40.9006 18.6987 37.5177 16.3518 34.8569 15.1331C32.1942 13.9135 30.337 13.859 29.0598 14.3436C27.7907 14.8252 26.9235 15.9047 26.3808 17.3373C25.9957 18.354 25.7897 19.5128 25.7231 20.6682ZM24.1496 28.3133C25.3288 27.4116 26.9538 26.9891 29.0753 27.2119C31.2975 27.4452 34.1057 28.3879 37.6393 30.2761L37.6818 30.2989L37.7211 30.327C38.1788 30.6553 38.6589 31.0821 39.0272 31.5695C40.424 31.2212 41.2705 30.8295 41.7511 30.4656C42.2254 30.1065 42.286 29.8262 42.2771 29.6478C42.2656 29.4143 42.1215 29.1018 41.7864 28.7394C41.462 28.3887 41.0254 28.0647 40.5937 27.8154L40.5411 27.7849L40.4941 27.7462C36.6247 24.5561 33.6175 22.7768 31.3117 21.9646C29.0116 21.1544 27.4959 21.3329 26.4967 21.9162C25.4836 22.5075 24.8238 23.6174 24.4647 25.044C24.2075 26.0658 24.1182 27.2019 24.1496 28.3133ZM23.7431 36.4843C28.3882 34.538 32.2814 34.5605 33.8907 34.8815C35.5666 34.7215 36.6543 34.444 37.3271 34.1322C38.0124 33.8145 38.1611 33.516 38.1941 33.3629C38.2324 33.1849 38.1795 32.9111 37.9167 32.5364C37.67 32.1846 37.2995 31.8361 36.9052 31.5483C33.4803 29.7228 30.8754 28.8774 28.9224 28.6723C26.9754 28.4678 25.7201 28.9014 24.9059 29.5877C24.0785 30.285 23.599 31.3335 23.3924 32.5578C23.1958 33.7229 23.2576 34.9911 23.4642 36.1213L23.7431 36.4843ZM43.7598 1.59327C43.7597 1.59308 43.7627 1.59428 43.7693 1.59746C43.7632 1.59505 43.7599 1.59346 43.7598 1.59327ZM66.4348 37.8658L67.5429 36.9041L68.8858 38.4556C69.4227 37.9315 70.0334 37.6284 70.6997 37.5472C71.5968 37.438 72.4623 37.748 73.2103 38.1984C74.6962 39.0931 76.0127 40.7179 76.772 41.9091L76.9057 42.119L76.8844 42.3671C76.3917 48.1033 72.9804 52.5158 69.0184 55.6758C65.057 58.8352 60.4704 60.806 57.4356 61.6599L57.1491 61.7406L56.8875 61.5984C53.7253 59.8794 52.2743 58.0768 51.9272 56.3754C51.5863 54.7045 52.3533 53.3547 53.1682 52.6046C52.3796 51.9113 51.3611 51.2532 50.2299 50.6505C47.7839 49.3474 44.9248 48.3631 43.0436 47.8592L43.4226 46.4407C45.3785 46.9646 48.3483 47.9848 50.9187 49.3542C52.2031 50.0385 53.4162 50.8248 54.356 51.7005C55.1034 52.397 55.7218 53.1908 56.0316 54.0748C59.7697 53.664 62.8458 51.6397 65.2134 49.1691C67.5453 46.7358 69.1434 43.9156 69.9563 41.9346L66.4348 37.8658ZM54.1695 53.6775C53.6281 54.1696 53.15 55.033 53.3639 56.0815C53.5785 57.1332 54.5314 58.5895 57.326 60.1634C60.2057 59.3112 64.4448 57.4462 68.1048 54.5271C71.827 51.5584 74.8781 47.561 75.3999 42.4907C74.6844 41.4188 73.5853 40.1376 72.4547 39.4569C71.8573 39.0972 71.3261 38.9502 70.8768 39.0049C70.5592 39.0436 70.2088 39.1921 69.8484 39.5679L71.6422 41.6405L71.4872 42.0502C70.6747 44.1988 68.9205 47.4216 66.2715 50.1858C63.6198 52.9527 60.0184 55.3125 55.523 55.592L54.8579 55.6333L54.7534 54.9743C54.6874 54.5573 54.4925 54.1233 54.1695 53.6775ZM15.5822 43.3279C15.8795 43.4439 16.1844 43.5887 16.4924 43.7532C17.2026 44.1327 17.9849 44.6483 18.8105 45.2585C20.4624 46.4791 22.3376 48.1152 24.2321 49.8988C27.7882 53.2468 31.4581 57.1585 33.9249 59.9328C35.9265 58.1121 35.8646 56.281 35.663 55.6569C33.8733 52.0661 30.8305 48.736 27.7101 46.017C24.583 43.2921 21.4257 41.2221 19.4908 40.1576L19.4791 40.1512L19.4676 40.1443C19.3182 40.0549 19.1022 40.0228 18.7317 40.1777C18.3504 40.3371 17.9043 40.6599 17.4284 41.1128C16.751 41.7575 16.0965 42.5849 15.5822 43.3279Z" fill="black"/>
<path fill-rule="evenodd" clip-rule="evenodd" d="M30.6356 77.1596C29.3766 71.4486 31.0314 64.9788 32.9071 60.7817L34.2447 61.3791C32.4336 65.4315 30.9019 71.5628 32.0663 76.8445C32.6441 79.4655 33.8809 81.8604 36.0653 83.7126C38.2528 85.5674 41.4481 86.9265 46.0259 87.3698L45.8847 88.8273C41.0864 88.3627 37.5854 86.9217 35.1176 84.8294C32.6468 82.7344 31.2695 80.035 30.6356 77.1596Z" fill="black"/>
<path fill-rule="evenodd" clip-rule="evenodd" d="M60.5363 77.1596C61.7953 71.4486 60.1405 64.9788 58.2647 60.7817L56.9271 61.3791C58.7383 65.4315 60.2699 71.5628 59.1056 76.8445C58.5278 79.4655 57.291 81.8604 55.1066 83.7126C52.9191 85.5674 49.7237 86.9265 45.1459 87.3698L45.2872 88.8273C50.0855 88.3627 53.5865 86.9217 56.0542 84.8293C58.525 82.7344 59.9024 80.035 60.5363 77.1596Z" fill="black"/>
<path fill-rule="evenodd" clip-rule="evenodd" d="M0.660459 61.4349C2.91712 46.7261 10.6633 43.0755 14.656 43.2995L14.5734 44.7602C11.5986 44.5933 4.29894 47.4017 2.11202 61.6559C0.738868 70.6061 1.16312 83.8801 7.37671 95.3497C13.5627 106.768 25.5376 116.497 47.4919 118.347L47.3681 119.805C24.9596 117.917 12.524 107.931 6.0845 96.0446C-0.327396 84.2089 -0.743629 70.5866 0.660459 61.4349Z" fill="black"/>
<path d="M33.5911 61.0735L31.394 67.091V72.2278V78.0252L33.5911 83.0153L36.8867 85.1434L42.8188 88.0054L50.4354 87.4183L55.7084 85.1434L58.6379 80.8137L60.1026 76.1172V71.2005L59.7364 66.7974L58.6379 63.2016L58.1252 61.6606L58.6379 60.3397L63.3982 58.7986L68.5248 55.3496L72.1866 51.6804L75.4822 46.7636L76.1413 43.0945H78.7778L82.2932 45.1492L86.2479 51.6804L88.5182 58.7986C89.275 67.042 89.4996 85.7158 84.3438 94.4631C79.188 103.21 74.579 108.137 72.9189 109.507L61.8603 115.744L52.1931 118.533L46.6271 119.414L32.2728 116.405L23.1183 112.222L15.2088 106.792L9.27663 99.9669L5.24864 92.9955L2.68537 85.1434L1.44035 79.0525L0.488281 71.2005L1.44035 61.6606L2.68537 55.6431L5.24864 50.5796L7.66543 46.7636L10.8146 44.2686H12.499L15.2088 43.9751L20.4932 48.3047C24.1725 51.1038 28.829 55.3007 33.5911 61.0735Z" fill="black"/>
<path fill-rule="evenodd" clip-rule="evenodd" d="M89.2981 60.3227C87.2401 45.3962 80.1669 41.5995 76.407 41.8342L76.4982 43.2972C79.1219 43.1334 85.8335 45.9217 87.8467 60.523C89.1065 69.6608 88.717 83.2121 83.0173 94.9195C77.3435 106.574 66.3822 116.464 46.3193 118.345L46.456 119.805C67.0377 117.875 78.4411 107.667 84.3345 95.5614C90.2021 83.5091 90.5827 69.6397 89.2981 60.3227Z" fill="black"/>
<path d="M50.575 86.2814C47.6191 87.5964 43.3329 87.0784 41.5593 86.655L41.042 87.8505L47.7669 90.3908C49.9346 88.4731 53.531 84.9664 50.575 86.2814Z" fill="black"/>
<path d="M75.0484 108.366C52.9933 128.52 28.2692 117.984 18.6641 110.197L57.3046 101.336L75.0484 108.366Z" fill="black"/>
<path d="M42.7522 8.18271L42.0196 6.86415L41.4336 7.45018L42.7522 8.18271Z" fill="black"/>
<path d="M54.6928 5.98511C54.6928 5.92651 54.7904 5.61884 54.8393 5.47234L55.1323 5.6921C54.9858 5.81418 54.6928 6.04371 54.6928 5.98511Z" fill="black"/>
<path d="M54.1067 53.38C53.9846 54.3079 54.1653 56.0318 55.8649 55.5044C57.5644 54.9769 55.4009 53.8684 54.1067 53.38Z" fill="black"/>
<path d="M71.9077 41.7327C72.0835 41.3811 70.6135 39.9747 69.8566 39.3154L69.7833 39.3886L69.5636 39.3154L70.6624 41.6595C70.3205 43.0025 69.754 45.4833 70.2229 44.6629C70.8089 43.6373 71.688 42.1723 71.9077 41.7327Z" fill="black"/>
<path d="M9.95076 80.1772L17.89 77.5041L19.3641 81.8824L11.4249 84.5554L11.9831 86.2133L20.1208 83.4734L17.5303 75.7794L9.39256 78.5193L9.95076 80.1772Z" fill="white"/>
<path fill-rule="evenodd" clip-rule="evenodd" d="M9.85817 80.3629L9.20638 78.4271L17.6221 75.5936L20.3062 83.5656L11.8905 86.3991L11.2387 84.4632L19.1779 81.7901L17.7974 77.6899L9.85817 80.3629ZM9.95036 80.1771L9.39217 78.5192L17.5299 75.7794L20.1204 83.4734L11.9827 86.2133L11.4245 84.5554L19.3637 81.8823L17.8896 77.5041L9.95036 80.1771Z" fill="white"/>
<path d="M14.0071 91.328L14.1485 91.4987L17.6224 90.1884L19.8624 92.8921L18.0312 96.1851L19.2022 97.5986L23.6922 89.5591L22.5054 88.1266L14.0071 91.328ZM22.3753 88.3944L19.9765 92.7016L17.8308 90.1118L22.3753 88.3944Z" fill="white"/>
<path fill-rule="evenodd" clip-rule="evenodd" d="M13.7634 91.2632L22.5521 87.9525L22.6899 88.1189L22.699 88.1155L22.6942 88.1241L23.8697 89.5429L19.2263 97.857L17.8547 96.2014L19.6859 92.9084L17.5767 90.3626L14.1028 91.6729L13.7634 91.2632ZM17.6229 90.1884L19.8628 92.8921L18.0316 96.1851L19.2027 97.5986L23.6927 89.5591L22.5059 88.1266L14.0075 91.328L14.149 91.4987L17.6229 90.1884ZM17.8313 90.1118L19.977 92.7016L22.3758 88.3944L17.8313 90.1118ZM22.0526 88.6733L18.0753 90.1763L19.9531 92.4429L22.0526 88.6733Z" fill="white"/>
<path d="M22.9595 101.463L23.1597 101.558L29.3049 95.3016L28.6542 104.175L30.3115 104.964L31.0003 95.7815L29.3208 94.9817L22.9595 101.463Z" fill="white"/>
<path fill-rule="evenodd" clip-rule="evenodd" d="M22.7103 101.507L29.2889 94.8043L31.1536 95.6923L30.4412 105.188L28.5001 104.264L29.1289 95.6896L23.1906 101.736L22.7103 101.507ZM29.3044 95.3016L28.6537 104.175L30.311 104.964L30.9998 95.7815L29.3203 94.9817L22.959 101.463L23.1592 101.558L29.3044 95.3016Z" fill="white"/>
<path d="M38.8792 104.092L37.9 106.178C37.6782 106.642 37.2395 106.879 36.7359 106.84C36.137 106.756 35.6966 106.227 35.7183 105.636C35.7457 104.97 36.3172 104.459 36.9804 104.511L36.9968 104.302C36.2107 104.241 35.5456 104.844 35.5095 105.619C35.4914 106.322 36.0111 106.944 36.7082 107.036C37.2977 107.082 37.8367 106.827 38.0908 106.267L39.0993 104.121C39.9562 104.226 40.8301 104.27 41.6898 104.337L41.4576 107.297L43.2139 107.435L43.8854 98.8744L42.1291 98.7366L41.9056 101.586C41.8731 101.213 41.8416 100.827 41.759 100.462C41.3645 98.8743 40.4119 98.4165 39.4171 98.3385C37.5994 98.1959 35.9744 98.7481 35.8067 100.885C35.6342 103.083 37.1552 103.858 38.8792 104.092ZM37.5998 101.026C37.7222 99.466 37.8941 98.219 39.7097 98.5468C40.4152 98.6887 41.3373 99.3788 41.534 100.494C41.9005 102.438 41.7042 104.153 41.7042 104.153C41.7042 104.153 40.9683 104.083 39.9367 104.002C38.7453 103.908 37.3975 103.605 37.5998 101.026Z" fill="white"/>
<path fill-rule="evenodd" clip-rule="evenodd" d="M41.9066 101.586C41.9054 101.572 41.9041 101.558 41.9029 101.545C41.8813 101.296 41.8593 101.042 41.8216 100.794C41.8047 100.682 41.7846 100.571 41.7599 100.462C41.3655 98.8744 40.4128 98.4166 39.418 98.3386C37.6003 98.196 35.9753 98.7481 35.8077 100.885C35.6403 103.019 37.0681 103.811 38.7285 104.07C38.7789 104.078 38.8294 104.085 38.8802 104.092L37.901 106.178C37.6792 106.642 37.2404 106.88 36.7369 106.84C36.138 106.756 35.6975 106.227 35.7192 105.636C35.7467 104.971 36.3181 104.459 36.9813 104.511L36.9977 104.303C36.9483 104.299 36.8993 104.297 36.8509 104.299C36.1305 104.317 35.5443 104.892 35.5104 105.619C35.4923 106.322 36.012 106.944 36.7092 107.036C37.2987 107.082 37.8376 106.828 38.0917 106.267L39.1003 104.122C39.7127 104.196 40.3339 104.24 40.9524 104.283C41.1502 104.297 41.3477 104.311 41.5445 104.326C41.5933 104.33 41.642 104.333 41.6907 104.337L41.4585 107.297L43.2148 107.435L43.8863 98.8744L42.1301 98.7367L41.9066 101.586ZM41.8622 100.276C41.6545 99.5412 41.3197 99.0441 40.9046 98.7188C40.4628 98.3726 39.9449 98.2328 39.4295 98.1924C38.5066 98.12 37.6109 98.2215 36.9194 98.6308C36.2185 99.0456 35.7485 99.7641 35.6615 100.874C35.5721 102.013 35.9227 102.804 36.5367 103.336C37.0968 103.821 37.8611 104.078 38.6637 104.208L37.7686 106.114C37.7686 106.115 37.7685 106.115 37.7684 106.115C37.5746 106.52 37.1966 106.727 36.7528 106.694C36.2302 106.619 35.8471 106.156 35.8657 105.641C35.89 105.059 36.3904 104.612 36.9699 104.658L37.1161 104.669L37.1554 104.168L37.0092 104.156C36.1391 104.088 35.4038 104.756 35.3639 105.612L35.3638 105.614L35.3638 105.616C35.3438 106.392 35.9168 107.079 36.69 107.181L36.6939 107.181L36.6977 107.182C37.3376 107.232 37.9409 106.954 38.2249 106.328C38.225 106.328 38.2252 106.328 38.2253 106.327L39.188 104.28C39.7704 104.347 40.3613 104.389 40.9459 104.43C41.1425 104.444 41.3384 104.457 41.533 104.472L41.3009 107.432L43.3495 107.592L44.044 98.7397L41.9953 98.579L41.8622 100.276ZM41.535 100.494C41.3383 99.3789 40.4162 98.6887 39.7106 98.5469C37.8951 98.2191 37.7231 99.466 37.6008 101.026C37.3984 103.605 38.7463 103.908 39.9376 104.002C40.9693 104.083 41.7052 104.153 41.7052 104.153C41.7052 104.153 41.7103 104.108 41.7173 104.026C41.7178 104.02 41.7183 104.013 41.7189 104.007C41.7562 103.553 41.8381 102.102 41.535 100.494ZM41.5728 103.993C41.5762 103.952 41.58 103.902 41.5838 103.845C41.5963 103.656 41.6093 103.384 41.6109 103.052C41.6141 102.386 41.5719 101.482 41.3909 100.521L41.3906 100.52C41.2057 99.4719 40.337 98.8231 39.6831 98.6909C39.2449 98.612 38.9217 98.6311 38.6805 98.7151C38.4427 98.7979 38.2729 98.9477 38.1458 99.1551C38.0166 99.3661 37.9311 99.638 37.8709 99.9612C37.8108 100.284 37.7776 100.647 37.747 101.037C37.6476 102.303 37.9316 102.969 38.3441 103.336C38.7648 103.711 39.354 103.809 39.9491 103.856C40.4655 103.896 40.9078 103.934 41.2212 103.962C41.3691 103.975 41.4882 103.985 41.5728 103.993Z" fill="white"/>
<path d="M47.0801 99.3578L49.2002 107.679L50.8954 107.247L49.8216 103.033L54.4058 101.864L55.4796 106.079L57.1747 105.647L55.0546 97.3259L53.3594 97.7578L54.3541 101.662L49.7699 102.83L48.7753 98.9259L47.0801 99.3578Z" fill="white"/>
<path fill-rule="evenodd" clip-rule="evenodd" d="M46.9023 99.2519L48.8818 98.7476L49.8764 102.651L54.1763 101.556L53.1817 97.6519L55.1611 97.1476L57.3537 105.753L55.3742 106.257L54.3005 102.043L50.0006 103.138L51.0743 107.353L49.0949 107.857L46.9023 99.2519ZM48.7759 98.9259L49.7705 102.83L54.3547 101.662L53.36 97.7579L55.0552 97.3259L57.1753 105.647L55.4801 106.079L54.4064 101.864L49.8222 103.033L50.896 107.247L49.2008 107.679L47.0807 99.3578L48.7759 98.9259Z" fill="white"/>
<path d="M63.2594 103.441L64.5777 102.291C66.4066 100.696 66.6351 98.3718 65.5246 96.3489L68.0592 99.2548L69.3775 98.105L63.7334 91.634L62.4151 92.7839L64.4719 95.142C67.4281 98.9062 65.3034 101.381 64.44 102.134L58.9336 95.8205L57.6152 96.9704L63.2594 103.441Z" fill="white"/>
<path fill-rule="evenodd" clip-rule="evenodd" d="M63.2451 103.648L57.4082 96.9562L58.9476 95.6136L64.4524 101.925C64.8784 101.527 65.5066 100.782 65.7452 99.7344C66.0032 98.6021 65.8124 97.0878 64.3588 95.2355L62.208 92.7697L63.7474 91.427L69.5843 98.119L68.045 99.4617L66.0552 97.1804C66.6932 99.0217 66.2929 100.99 64.674 102.402L63.2451 103.648ZM65.7723 96.8561C65.6989 96.6853 65.6163 96.5161 65.5245 96.3489L68.0591 99.2548L69.3774 98.1049L63.7333 91.634L62.415 92.7838L64.4718 95.142C67.3101 98.756 65.4647 101.181 64.5488 102.035C64.5108 102.071 64.4743 102.104 64.4399 102.134L58.9335 95.8205L57.6151 96.9704L63.2593 103.441L64.5776 102.291C66.2554 100.828 66.5863 98.751 65.7723 96.8561Z" fill="white"/>
<path d="M73.3247 93.7739L75.0747 89.982C75.3638 89.3556 76.1054 89.1009 76.7318 89.39C77.347 89.6739 77.6232 90.3984 77.3342 91.0248C77.0451 91.6512 76.3094 91.9222 75.6942 91.6383L75.6116 91.8173C76.3275 92.1477 77.1888 91.8396 77.5243 91.1126C77.8599 90.3855 77.5355 89.5302 76.8196 89.1999C76.3274 88.9727 75.7785 89.045 75.3741 89.3333L76.7266 86.4026L68.9302 82.8045L68.1972 84.3929L75.8034 87.9032L73.8676 92.0978L66.2614 88.5875L65.5283 90.1758L73.3247 93.7739Z" fill="white"/>
<path fill-rule="evenodd" clip-rule="evenodd" d="M73.3957 93.9686L65.333 90.2476L66.189 88.3929L73.7951 91.9032L75.6081 87.975L68.0019 84.4646L68.8578 82.6099L76.9205 86.3309L75.6847 89.0087C76.0597 88.8774 76.4866 88.885 76.8803 89.0667C77.669 89.4307 78.0266 90.3727 77.6568 91.174C77.2869 91.9754 76.3381 92.3144 75.5495 91.9505L75.4163 91.889L75.6218 91.4437L75.755 91.5052C76.2958 91.7548 76.9448 91.5171 77.2003 90.9634C77.455 90.4114 77.2122 89.7736 76.6697 89.5232C76.1134 89.2664 75.4607 89.4941 75.2071 90.0435L73.3957 93.9686ZM75.5947 89.2037C75.5173 89.2402 75.4432 89.2835 75.3734 89.3333L76.7259 86.4027L68.9295 82.8046L68.1965 84.3929L75.8027 87.9032L73.8669 92.0978L66.2607 88.5875L65.5276 90.1759L73.324 93.7739L75.074 89.982C75.3631 89.3556 76.1047 89.1009 76.7311 89.39C77.3463 89.674 77.6225 90.3984 77.3335 91.0248C77.0444 91.6512 76.3087 91.9223 75.6935 91.6383L75.6109 91.8173C75.6558 91.838 75.7013 91.8562 75.7472 91.872C76.4328 92.1074 77.2091 91.794 77.5236 91.1126C77.8592 90.3855 77.5348 89.5303 76.8189 89.1999C76.4117 89.0119 75.9656 89.029 75.5947 89.2037Z" fill="white"/>
<path d="M76.0952 77.6871L78.1189 78.7886C78.5695 79.0376 78.7804 79.4897 78.711 79.99C78.5915 80.5829 78.0374 80.9911 77.4483 80.9343C76.786 80.8673 76.3096 80.2665 76.401 79.6075L76.1935 79.5788C76.0852 80.3597 76.6474 81.0595 77.4195 81.1417C78.1202 81.2015 78.7715 80.7198 78.9046 80.0293C78.9858 79.4436 78.764 78.8904 78.2192 78.6035L76.1378 77.4691C76.2929 76.62 76.3886 75.7503 76.507 74.8961L79.4478 75.3039L79.6898 73.5589L71.1846 72.3796L70.9426 74.1245L73.7736 74.5171C73.3991 74.5273 73.0124 74.5359 72.6433 74.5966C71.0347 74.896 70.521 75.8197 70.384 76.8081C70.1336 78.6141 70.5881 80.2691 72.7114 80.5635C74.8956 80.8664 75.759 79.3941 76.0952 77.6871ZM72.9584 78.7819C71.4087 78.567 70.1742 78.3212 70.6093 76.5284C70.7929 75.8325 71.5367 74.9531 72.6616 74.8231C74.6241 74.5728 76.324 74.8707 76.324 74.8707C76.324 74.8707 76.2103 75.6012 76.0681 76.6262C75.904 77.8098 75.521 79.1373 72.9584 78.7819Z" fill="white"/>
<path fill-rule="evenodd" clip-rule="evenodd" d="M73.773 74.5171C73.7592 74.5175 73.7453 74.5178 73.7314 74.5182C73.4819 74.525 73.2276 74.5319 72.977 74.5548C72.8645 74.565 72.7528 74.5785 72.6427 74.5966C71.0341 74.896 70.5204 75.8197 70.3834 76.8081C70.133 78.6141 70.5875 80.2691 72.7108 80.5635C74.8308 80.8575 75.7064 79.4792 76.0635 77.8372C76.0743 77.7874 76.0847 77.7373 76.0945 77.6871L78.1183 78.7886C78.5688 79.0376 78.7798 79.4897 78.7104 79.99C78.5909 80.5829 78.0368 80.9911 77.4477 80.9343C76.7854 80.8673 76.309 80.2665 76.4004 79.6075L76.1929 79.5787C76.1861 79.6279 76.182 79.6767 76.1803 79.7251C76.1562 80.4453 76.6954 81.0647 77.4189 81.1417C78.1195 81.2015 78.7709 80.7198 78.904 80.0293C78.9852 79.4436 78.7634 78.8904 78.2186 78.6035L76.1372 77.4691C76.248 76.8622 76.3286 76.2447 76.4087 75.6299C76.4344 75.4333 76.46 75.237 76.4865 75.0414C76.4931 74.9929 76.4997 74.9445 76.5064 74.8961L79.4472 75.3039L79.6892 73.5589L71.184 72.3796L70.942 74.1245L73.773 74.5171ZM72.4628 74.4835C71.7169 74.6471 71.2007 74.9518 70.8513 75.3468C70.4795 75.7672 70.3091 76.2758 70.2381 76.788C70.111 77.7049 70.1591 78.6051 70.5265 79.3197C70.899 80.044 71.5882 80.5559 72.6906 80.7088C73.8225 80.8657 74.6329 80.5627 75.2006 79.9815C75.7185 79.4513 76.0204 78.7036 76.1976 77.9101L78.0474 78.9169C78.0475 78.917 78.0477 78.9171 78.0478 78.9172C78.4411 79.1348 78.6253 79.5244 78.5657 79.9654C78.4592 80.4826 77.9743 80.8375 77.4621 80.7883C76.8819 80.7295 76.4658 80.2034 76.5456 79.6277L76.5658 79.4824L76.0678 79.4133L76.0477 79.5586C75.9278 80.4231 76.5504 81.1967 77.4034 81.2875L77.4049 81.2877L77.4064 81.2878C78.1801 81.3539 78.9004 80.8229 79.048 80.057L79.0487 80.0532L79.0492 80.0494C79.1374 79.4137 78.8957 78.7949 78.2879 78.4742C78.2876 78.4741 78.2873 78.4739 78.287 78.4737L76.3003 77.391C76.4023 76.8136 76.4789 76.2262 76.5547 75.6451C76.5801 75.4497 76.6055 75.2549 76.6318 75.0615L79.5724 75.4693L79.8546 73.4338L71.0589 72.2141L70.7766 74.2497L72.4628 74.4835ZM72.661 74.8231C71.5361 74.9531 70.7923 75.8325 70.6087 76.5284C70.1736 78.3212 71.4081 78.567 72.9578 78.7819C75.5204 79.1372 75.9034 77.8098 76.0675 76.6262C76.2097 75.6012 76.3234 74.8707 76.3234 74.8707C76.3234 74.8707 76.2794 74.863 76.1974 74.8511C76.1913 74.8502 76.1849 74.8493 76.1784 74.8484C75.7279 74.7841 74.2843 74.6161 72.661 74.8231ZM76.1562 74.9933C76.1152 74.9875 76.0658 74.9808 76.0087 74.9736C75.8213 74.9499 75.5505 74.9208 75.2187 74.8994C74.5547 74.8566 73.6489 74.8449 72.6796 74.9685L72.6779 74.9688C71.621 75.091 70.9217 75.9196 70.7509 76.5645C70.646 76.9972 70.6459 77.321 70.7154 77.5668C70.7839 77.809 70.9233 77.9875 71.1228 78.1266C71.3258 78.2681 71.5921 78.3696 71.9112 78.449C72.2296 78.5281 72.5904 78.5829 72.978 78.6367C74.236 78.8111 74.9176 78.5672 75.3085 78.1773C75.7073 77.7796 75.8403 77.1973 75.9223 76.606C75.9934 76.093 76.0574 75.6536 76.1037 75.3425C76.1255 75.1956 76.1434 75.0773 76.1562 74.9933Z" fill="white"/>
<path fill-rule="evenodd" clip-rule="evenodd" d="M52.8264 41.4986C52.9844 41.1195 53.4172 40.9414 53.7931 41.1007C54.658 41.4672 55.9623 42.0712 57.0667 42.6954C57.616 43.0059 58.1401 43.3349 58.5397 43.6538C58.7385 43.8124 58.9285 43.9858 59.0777 44.17C59.2144 44.3388 59.388 44.6027 59.4116 44.9353C59.4406 45.3454 59.1345 45.7017 58.7278 45.731C58.3523 45.758 58.0223 45.4969 57.951 45.1339C57.9465 45.1277 57.9408 45.1203 57.9339 45.1118C57.8786 45.0435 57.7792 44.9457 57.6234 44.8214C57.3137 44.5743 56.8678 44.29 56.3448 43.9943C55.3044 43.4063 54.0542 42.8265 53.221 42.4734C52.8451 42.314 52.6684 41.8776 52.8264 41.4986ZM57.9675 45.159C57.9674 45.159 57.9664 45.1574 57.9648 45.1541C57.9669 45.1574 57.9676 45.1591 57.9675 45.159Z" fill="black"/>
<path d="M38.8775 107.419L40.2047 107.584C41.0895 107.695 41.5173 107.526 41.6184 106.715C41.7078 105.998 41.1774 105.625 40.4602 105.535L39.5754 105.425L39.7148 104.307L41.5636 104.538L41.5735 104.459L39.2822 104.173L38.8775 107.419ZM39.3298 107.395L39.5655 105.504L40.4504 105.614C40.9347 105.675 41.2439 106.002 41.162 106.658C41.0795 107.32 40.8619 107.586 40.2146 107.505L39.3298 107.395Z" fill="black"/>
<path d="M42.5928 107.871L42.6772 107.874L43.8859 104.759L44.9939 107.962L45.4722 107.981L44.3263 104.663L43.8433 104.645L42.5928 107.871Z" fill="black"/>
<path d="M46.651 108.012L46.7354 108.009L47.1363 106.652L48.4726 106.594L49.0515 107.907L49.5298 107.886L48.116 104.674L47.6331 104.695L46.651 108.012ZM47.6845 104.796L48.4409 106.515L47.161 106.571L47.6845 104.796Z" fill="black"/>
<path d="M52.6293 104.288L50.4531 104.549L50.8418 107.796L51.2844 107.743L50.9053 104.575L52.6387 104.367L52.6293 104.288Z" fill="black"/>
<path d="M53.7416 105.834C53.9821 107.006 54.9482 107.326 55.8962 107.136C56.8469 106.936 57.6094 106.263 57.369 105.09C57.1333 103.941 56.1624 103.599 55.2098 103.789C54.2637 103.988 53.5059 104.685 53.7416 105.834ZM55.2249 103.863C55.9145 103.721 56.6641 103.989 56.9092 105.184C57.1553 106.384 56.5717 106.926 55.8821 107.067C55.1971 107.208 54.4475 106.94 54.2014 105.74C53.9562 104.544 54.5399 104.003 55.2249 103.863Z" fill="black"/>
<path d="M58.8249 106.362L58.8486 106.439L61.7435 105.538C61.99 105.461 62.2543 105.6 62.3324 105.851C62.4091 106.098 62.2702 106.362 62.0237 106.439C61.7727 106.517 61.5083 106.378 61.4317 106.132L61.3555 106.155C61.4447 106.442 61.7561 106.606 62.0474 106.515C62.3342 106.426 62.4978 106.114 62.4086 105.828C62.3208 105.545 62.0242 105.382 61.7422 105.455L59.6067 102.777L59.1451 102.921C59.1413 103.114 59.11 104.372 59.0809 105.226C59.0503 106.155 59.0131 106.304 58.8249 106.362ZM59.1595 105.226C59.1854 104.456 59.2107 103.353 59.2192 103.001L61.2851 105.597L59.031 106.298C59.1172 106.149 59.138 105.852 59.1595 105.226Z" fill="black"/>
<path d="M62.6342 101.741L62.2188 101.903L63.4061 104.951L63.8215 104.789L62.6342 101.741Z" fill="black"/>
<path d="M63.6113 101.394L64.988 104.361L65.3924 104.174C65.567 104.093 65.9811 103.859 66.2257 103.394C66.4256 103.022 66.4696 102.593 66.3664 102.103L66.9846 103.435L67.389 103.248L66.0124 100.28L65.608 100.468L66.1195 101.571C66.8007 103.262 65.7249 103.932 65.3588 104.101L64.0158 101.207L63.6113 101.394ZM64.958 101.152C65.1326 101.071 65.2079 100.866 65.1269 100.691L65.0545 100.725C65.1177 100.861 65.0564 101.019 64.9244 101.08C64.7925 101.141 64.6324 101.086 64.5692 100.95L64.5011 100.981C64.5821 101.156 64.7877 101.231 64.958 101.152Z" fill="black"/>
<path d="M67.0254 99.8027L68.6683 102.631L69.0538 102.407L68.2217 100.975L69.7801 100.07L70.6122 101.502L70.9977 101.278L69.3548 98.4497L68.9693 98.6737L69.74 100.001L68.1817 100.906L67.4109 99.5788L67.0254 99.8027Z" fill="black"/>
<path d="M70.7676 97.536L70.3984 97.786L72.2323 100.495L72.6015 100.245L70.7676 97.536Z" fill="black"/>
<path d="M71.7363 96.9137L73.7472 99.4937L74.0989 99.2196C74.2506 99.1013 74.6014 98.7803 74.7346 98.2718C74.8454 97.8642 74.7914 97.4362 74.5802 96.982L75.4832 98.1406L75.8349 97.8665L73.824 95.2865L73.4724 95.5606L74.2196 96.5193C75.265 98.0132 74.3681 98.9085 74.0498 99.1567L72.088 96.6396L71.7363 96.9137ZM72.9937 96.374C73.1454 96.2557 73.1724 96.0384 73.0541 95.8866L72.9912 95.9357C73.0835 96.0541 73.0594 96.2217 72.9446 96.3111C72.8299 96.4005 72.6615 96.383 72.5692 96.2646L72.51 96.3107C72.6282 96.4625 72.8456 96.4894 72.9937 96.374Z" fill="black"/>
<path d="M77.3174 94.4728C77.9795 95.0909 78.8368 94.819 79.5031 94.1121L79.6312 93.9749L79.8439 94.1734L80.1481 93.8475L79.9355 93.649L80.0636 93.5117C80.723 92.7984 80.9354 91.9245 80.2733 91.3064C79.6112 90.6883 78.7608 90.9666 78.0976 91.6701L77.9695 91.8073L77.7634 91.6085L77.4592 91.9344L77.6685 92.1298L77.5372 92.2704C76.8742 92.9805 76.6518 93.8515 77.3174 94.4728ZM77.628 94.14C77.0002 93.554 77.0927 92.8635 77.5731 92.3489L77.7268 92.1842L79.5729 93.9204L79.4256 94.0782C78.9452 94.5928 78.2558 94.7261 77.628 94.14ZM78.0278 91.8617L78.1719 91.7074C78.6491 91.1962 79.3349 91.0531 79.9626 91.6391C80.5904 92.2252 80.5016 92.9256 80.0244 93.4367L79.8771 93.5945L78.0278 91.8617Z" fill="black"/>
<path d="M80.952 90.5547C81.9111 91.2705 82.845 90.8666 83.427 90.0947C84.0043 89.3133 84.1259 88.3031 83.1668 87.5873C82.2266 86.8855 81.2739 87.2754 80.689 88.0511C80.1145 88.8286 80.0118 89.8529 80.952 90.5547ZM80.7492 88.096C81.1703 87.5318 81.9083 87.2335 82.8861 87.9634C83.8677 88.696 83.7917 89.4884 83.3706 90.0525C82.9523 90.6129 82.2143 90.9113 81.2327 90.1786C80.2549 89.4487 80.3309 88.6564 80.7492 88.096Z" fill="black"/>
<path d="M82.543 85.6143L85.3331 87.3218L85.5658 86.9415L84.1527 86.0767L85.0934 84.5396L86.5065 85.4043L86.7392 85.0241L83.9491 83.3166L83.7164 83.6969L85.0254 84.498L84.0847 86.0351L82.7757 85.234L82.543 85.6143Z" fill="black"/>
<path d="M87.2836 83.9788L87.3547 84.015L88.7316 81.314C88.8488 81.0841 89.1329 80.9918 89.367 81.1112C89.597 81.2284 89.6892 81.5125 89.572 81.7424C89.4526 81.9766 89.1686 82.0688 88.9386 81.9516L88.9024 82.0227C89.17 82.1591 89.5045 82.0505 89.6431 81.7787C89.7795 81.5111 89.6709 81.1765 89.4033 81.0401C89.1399 80.9058 88.8159 81.0041 88.6712 81.2569L85.2632 80.9155L85.0436 81.3462C85.179 81.4836 86.0577 82.3846 86.649 83.0021C87.2923 83.6724 87.3731 83.8032 87.2836 83.9788ZM86.704 82.9458C86.171 82.3897 85.3985 81.6008 85.1527 81.3491L88.4538 81.6834L87.3816 83.7865C87.3347 83.6203 87.137 83.3984 86.704 82.9458Z" fill="black"/>
</svg>
